<?xml version="1.0" encoding="utf-8"?>
<!-- Generator: Adobe Illustrator 22.0.1, SVG Export Plug-In . SVG Version: 6.00 Build 0)  -->
<svg version="1.1" id="Capa_1" xmlns="http://www.w3.org/2000/svg" xmlns:xlink="http://www.w3.org/1999/xlink" x="0px" y="0px"
	 viewBox="0 0 512 512" style="enable-background:new 0 0 512 512;" xml:space="preserve">
<style type="text/css">
	.st0{fill:#FFFFFF;}
</style>
<path class="st0" d="M256,512C114.8,512,0,397.2,0,256S114.8,0,256,0s256,114.8,256,256S397.2,512,256,512z M256,32
	C132.5,32,32,132.5,32,256s100.5,224,224,224s224-100.5,224-224S379.5,32,256,32z"/>
<path class="st0" d="M397.8,355.6L298.2,256l99.6-99.6c6.9-6.9,11.4-15.4,12.8-24c1.5-9.4-1-18.2-6.9-24.1
	c-4.7-4.7-11.4-7.4-18.8-7.4v4c0,0,0,0,0,0l0-4h0h0c-10.2,0-20.9,4.8-29.3,13.2L256,213.8l-99.6-99.6c-8.4-8.4-19.1-13.2-29.3-13.2
	h0c-7.4,0-14,2.6-18.8,7.4c-5.9,5.9-8.4,14.7-6.9,24.1c1.4,8.6,5.9,17.1,12.8,24l99.6,99.6l-99.6,99.6c-6.9,6.9-11.4,15.4-12.8,24
	c-1.5,9.4,1,18.2,6.9,24.1c4.7,4.7,11.4,7.4,18.8,7.4c10.2,0,20.9-4.8,29.3-13.2l99.6-99.6l99.6,99.6c8.4,8.4,19.1,13.2,29.3,13.2
	c7.4,0,14-2.6,18.8-7.4c5.9-5.9,8.4-14.7,6.9-24.1C409.2,371,404.7,362.5,397.8,355.6z"/>
</svg>
