<?xml version="1.0" encoding="utf-8"?>
<!-- Generator: Adobe Illustrator 22.0.1, SVG Export Plug-In . SVG Version: 6.00 Build 0)  -->
<svg version="1.1" id="Capa_1" xmlns="http://www.w3.org/2000/svg" xmlns:xlink="http://www.w3.org/1999/xlink" x="0px" y="0px"
	 viewBox="0 0 200 200" style="enable-background:new 0 0 200 200;" xml:space="preserve">
<style type="text/css">
	.st0{fill:#42D35E;}
</style>
<path class="st0" d="M175.3,24.4l-15.8-8.9v0L135.5,2l-2,3.2l-3,4.8l26.3,15.8v17.3c0,3.8,2.1,7.4,5.4,9.3l12.2,6.8
	c0,7.2,0,21.2,0,39.2c0,13.4,0,29.1,0,45.8c0,4.2,0,8.5,0,12.8c0,0.3,0,0.6,0,0.8l0,0.6c0,0.4-0.1,0.8-0.2,1.3
	c0,0.4-0.2,0.8-0.3,1.2c-0.1,0.4-0.3,0.8-0.4,1.2c-0.7,1.6-1.7,3-3,4.1c-2.6,2.3-6.2,3.1-9.8,2.5c-3.4-0.7-6.5-3-8-6.2
	c-0.4-0.8-0.6-1.6-0.9-2.5c-0.1-0.4-0.1-0.9-0.2-1.3l0-0.7c0-0.2,0-0.4,0-0.7c0-2.2,0-4.5,0-6.7c0-4.5,0-8.9,0-13.3
	c0-8.8,0-17.5,0-25.9c0-16.8,0-32.4,0-45.8c0-1.7,0-3.3,0-4.9c0-2.3-0.8-4.6-2.2-6.3c-1.4-1.8-3.3-3-5.3-3.5c-0.5-0.2-1-0.2-1.5-0.3
	l-0.8-0.1l-0.4,0h-0.3c-0.7,0-1.4,0-2.1,0c-2.5,0-4.9,0-7.1,0V20.1c0-10-6.6-18.1-14.8-18.1H81H45c-8.2,0-14.8,8.1-14.8,18.1v160.6
	l0,0h-2.4c-4.8,0-8.6,3.8-8.6,8.6v0.2c0,4.7,3.9,8.6,8.6,8.6H81h53.3c4.8,0,8.6-3.8,8.6-8.6v-0.2c0-4.7-3.9-8.6-8.6-8.6h-2.4l0,0V57
	c2.2,0,4.6,0,7.1,0c0.7,0,1.4,0,2.1,0h0.3c0.1,0,0.1,0,0.2,0l0.3,0c0.2,0,0.4,0,0.6,0.1c0.8,0.2,1.5,0.7,2,1.3
	c0.5,0.7,0.8,1.4,0.8,2.4c0,1.6,0,3.2,0,4.9c0,13.4,0,29.1,0,45.8c0,8.4,0,17,0,25.9c0,4.4,0,8.8,0,13.3c0,2.2,0,4.5,0,6.7
	c0,0.3,0,0.6,0,0.9l0.1,1c0.1,0.7,0.2,1.4,0.3,2c0.3,1.3,0.7,2.6,1.3,3.9c2.3,5,7.1,8.7,12.5,9.7c0.7,0.1,1.3,0.2,2,0.3
	c0.7,0,1.4,0.1,2,0.1c1.4,0,2.7-0.2,4-0.5c2.6-0.7,5.1-1.9,7.1-3.7c2-1.8,3.7-4,4.7-6.4c0.2-0.6,0.5-1.2,0.7-1.9
	c0.2-0.6,0.4-1.3,0.5-1.9c0.1-0.7,0.2-1.3,0.2-2l0-1c0-0.3,0-0.6,0-0.8c0-4.3,0-8.6,0-12.8c0-16.8,0-32.4,0-45.8
	c0-15.4,0-27.8,0-35.6c0-5.8,0-9.1,0-9.1V33.7C180.8,29.9,178.7,26.3,175.3,24.4z M48.7,57.9V33.1c0-3.5,3.1-6.4,6.8-6.4H81h25.6
	c3.7,0,6.8,2.9,6.8,6.4v24.8c0,3.5-3.1,6.4-6.8,6.4H81H55.5C51.7,64.3,48.7,61.5,48.7,57.9z"/>
</svg>
